<!DOCTYPE svg PUBLIC "-//W3C//DTD SVG 1.1//EN" "http://www.w3.org/Graphics/SVG/1.1/DTD/svg11.dtd">
<!-- Uploaded to: SVG Repo, www.svgrepo.com, Transformed by: SVG Repo Mixer Tools -->
<svg fill="#D7E5FF" width="800px" height="800px" viewBox="0 0 24 24" xmlns="http://www.w3.org/2000/svg" stroke="#D7E5FF">
<g id="SVGRepo_bgCarrier" stroke-width="0"/>
<g id="SVGRepo_tracerCarrier" stroke-linecap="round" stroke-linejoin="round"/>
<g id="SVGRepo_iconCarrier">
<path d="M17.895 3.553A1.001 1.001 0 0 0 17 3H7c-.379 0-.725.214-.895.553l-4 8a1 1 0 0 0 0 .895l4 8c.17.338.516.552.895.552h10c.379 0 .725-.214.895-.553l4-8a1 1 0 0 0 0-.895l-4-7.999zM19.382 11h-7.764l-3-6h7.764l3 6zm-3 8H8.618l3-6h7.764l-3 6z"/>
</g>
</svg>